# xmcd
# 
# Track frame offsets:
#     150
#     16909
#     22764
#     34875
#     45165
#     56461
#     66078
#     75176
# 
# Disc length: 1145
# 
# Revision: 0
# Processed by: cddbd v1.5.2PL0 Copyright (c) Steve Scherf et al.
# Submitted via: BonkEnc v1.0.8
# 
DISCID=4a047708
DTITLE=Project 208 - Love Songs For The Dying Machine
DYEAR=0
DGENRE=Rock
TTITLE0=In My Head
TTITLE1=Off Track
TTITLE2=Little Pieces Of Glass
TTITLE3=It's Just Like
TTITLE4=Living In The Past
TTITLE5=Love Songs For The Dying Machine
TTITLE6=Locked Up
TTITLE7=Goodbye
EXTD=
EXTT0=
EXTT1=
EXTT2=
EXTT3=
EXTT4=
EXTT5=
EXTT6=
EXTT7=
PLAYORDER=
